<?xml version="1.0" standalone="no"?><!DOCTYPE svg PUBLIC "-//W3C//DTD SVG 1.1//EN" "http://www.w3.org/Graphics/SVG/1.1/DTD/svg11.dtd"><svg t="1684408631366" class="icon" viewBox="0 0 1024 1024" version="1.1" xmlns="http://www.w3.org/2000/svg" p-id="4325" xmlns:xlink="http://www.w3.org/1999/xlink" width="200" height="200"><path d="M917.084724 25.809638A25.801575 25.801575 0 0 0 891.267024 0H264.966047C177.022992 0 105.657449 71.550992 105.657449 159.268283v704.415245c0 87.926929 71.575181 159.268283 159.308598 159.268283h626.510614a25.801575 25.801575 0 0 0 25.817701-25.809638V292.928504a25.801575 25.801575 0 0 0-25.817701-25.801575H264.966047c-59.400063 0-107.882835-48.474709-107.882834-107.858646 0-59.383937 48.482772-107.858646 107.882834-107.858645h626.510614a25.704819 25.704819 0 0 0 25.608063-25.6zM264.966047 318.528504h600.692914v653.013669h-600.692914c-59.400063 0-107.882835-48.474709-107.882834-107.858645V276.350992a158.373291 158.373291 0 0 0 107.882834 42.177512z m8.812851-182.554205h587.896945a25.801575 25.801575 0 0 1 25.809637 25.809638 25.801575 25.801575 0 0 1-25.809637 25.809638H273.778898a25.801575 25.801575 0 0 1-25.817701-25.809638 25.801575 25.801575 0 0 1 25.817701-25.809638zM373.477795 834.519685a25.6 25.6 0 0 0 33.155024-14.900409l37.573543-98.207245h131.596095c1.048189 0 1.894803-0.201575 2.733354-0.201574l37.573543 98.408819a25.720945 25.720945 0 0 0 23.922898 16.577511c3.144567 0 6.087559-0.628913 9.232126-1.677102a25.76126 25.76126 0 0 0 14.900409-33.155024L550.83137 505.065827a41.959811 41.959811 0 0 0-39.460283-27.277103 41.959811 41.959811 0 0 0-39.460284 27.277103L358.569323 801.364661c-5.031307 13.223307 1.685165 27.906016 14.908472 33.155024z m137.893292-288.945386l47.64422 124.436158H463.936504l47.434583-124.436158z" fill="#409EFF" p-id="4326"></path></svg>